paper_minjerk_10cycles
version=1
nRows=343
nColumns=3
inDegrees=yes
endheader
time	r_shoulder_elev	r_elbow_flex
45.0000	0.000000	63.209877
45.0100	0.000000	62.411932
45.0200	0.000000	61.598669
45.0300	0.000000	60.770591
45.0400	0.000000	59.928216
45.0500	0.000000	59.072079
45.0600	0.000000	58.202733
45.0700	0.000000	57.320744
45.0800	0.000000	56.426693
45.0900	0.000000	55.521176
45.1000	0.000000	54.604800
45.1100	0.000000	53.678185
45.1200	0.000000	52.741962
45.1300	0.000000	51.796773
45.1400	0.000000	50.843270
45.1500	0.000000	49.882114
45.1600	0.000000	48.913973
45.1700	0.000000	47.939526
45.1800	0.000000	46.959454
45.1900	0.000000	45.974449
45.2000	0.000000	44.985205
45.2100	0.000000	43.992421
45.2200	0.000000	42.996802
45.2300	0.000000	41.999052
45.2400	0.000000	40.999881
45.2500	0.000000	40.000000
45.2600	0.000000	39.000119
45.2700	0.000000	38.000948
45.2800	0.000000	37.003198
45.2900	0.000000	36.007579
45.3000	0.000000	35.014795
45.3100	0.000000	34.025551
45.3200	0.000000	33.040546
45.3300	0.000000	32.060474
45.3400	0.000000	31.086027
45.3500	0.000000	30.117886
45.3600	0.000000	29.156730
45.3700	0.000000	28.203227
45.3800	0.000000	27.258038
45.3900	0.000000	26.321815
45.4000	0.000000	25.395200
45.4100	0.000000	24.478824
45.4200	0.000000	23.573307
45.4300	0.000000	22.679256
45.4400	0.000000	21.797267
45.4500	0.000000	20.927921
45.4600	0.000000	20.071784
45.4700	0.000000	19.229409
45.4800	0.000000	18.401331
45.4900	0.000000	17.588068
45.5000	0.000000	16.790123
45.5100	0.000000	16.007979
45.5200	0.000000	15.242101
45.5300	0.000000	14.492932
45.5400	0.000000	13.760897
45.5500	0.000000	13.046400
45.5600	0.000000	12.349821
45.5700	0.000000	11.671518
45.5800	0.000000	11.011826
45.5900	0.000000	10.371055
45.6000	0.000000	9.749491
45.6100	0.000000	9.147394
45.6200	0.000000	8.564996
45.6300	0.000000	8.002504
45.6400	0.000000	7.460094
45.6500	0.000000	6.937916
45.6600	0.000000	6.436089
45.6700	0.000000	5.954702
45.6800	0.000000	5.493813
45.6900	0.000000	5.053448
45.7000	0.000000	4.633600
45.7100	0.000000	4.234229
45.7200	0.000000	3.855261
45.7300	0.000000	3.496587
45.7400	0.000000	3.158063
45.7500	0.000000	2.839506
45.7600	0.000000	2.540700
45.7700	0.000000	2.261387
45.7800	0.000000	2.001273
45.7900	0.000000	1.760024
45.8000	0.000000	1.537264
45.8100	0.000000	1.332579
45.8200	0.000000	1.145512
45.8300	0.000000	0.975562
45.8400	0.000000	0.822187
45.8500	0.000000	0.684800
45.8600	0.000000	0.562769
45.8700	0.000000	0.455417
45.8800	0.000000	0.362021
45.8900	0.000000	0.281810
45.9000	0.000000	0.213965
45.9100	0.000000	0.157621
45.9200	0.000000	0.111861
45.9300	0.000000	0.075719
45.9400	0.000000	0.048177
45.9500	0.000000	0.028168
45.9600	0.000000	0.014570
45.9700	0.000000	0.006210
45.9800	0.000000	0.001859
45.9900	0.000000	0.000235
46.0000	0.000000	0.000000
46.0100	0.000000	0.000000
46.0200	0.000000	0.000000
46.0300	0.000000	0.000000
46.0400	0.000000	0.000000
46.0500	0.000000	0.000000
46.0600	0.000000	0.000000
46.0700	0.000000	0.000000
46.0800	0.000000	0.000000
46.0900	0.000000	0.000000
46.1000	0.000000	0.000000
46.1100	0.000000	0.000000
46.1200	0.000000	0.000000
46.1300	0.000000	0.000000
46.1400	0.000000	0.000000
46.1500	0.000000	0.000000
46.1600	0.000000	0.000000
46.1700	0.000000	0.000000
46.1800	0.000000	0.000000
46.1900	0.000000	0.000000
46.2000	0.000000	0.000000
46.2100	0.000000	0.000000
46.2200	0.000000	0.000000
46.2300	0.000000	0.000000
46.2400	0.000000	0.000000
46.2500	0.000000	0.000000
46.2600	0.000000	0.000000
46.2700	0.000000	0.000000
46.2800	0.000000	0.000000
46.2900	0.000000	0.000000
46.3000	0.000000	0.000000
46.3100	0.000000	0.000000
46.3200	0.000000	0.000000
46.3300	0.000000	0.000000
46.3400	0.000000	0.000000
46.3500	0.000000	0.000000
46.3600	0.000000	0.000000
46.3700	0.000000	0.000000
46.3800	0.000000	0.000000
46.3900	0.000000	0.000000
46.4000	0.000000	0.000000
46.4100	0.000000	0.000000
46.4200	0.000000	0.000000
46.4300	0.000000	0.000000
46.4400	0.000000	0.000000
46.4500	0.000000	0.000000
46.4600	0.000000	0.000000
46.4700	0.000000	0.000000
46.4800	0.000000	0.000000
46.4900	0.000000	0.000000
46.5000	0.000000	0.000000
46.5100	0.000000	0.000000
46.5200	0.000000	0.000000
46.5300	0.000000	0.000000
46.5400	0.000000	0.000000
46.5500	0.000000	0.000000
46.5600	0.000000	0.000000
46.5700	0.000000	0.000000
46.5800	0.000000	0.000000
46.5900	0.000000	0.000000
46.6000	0.000000	0.000000
46.6100	0.000000	0.000000
46.6200	0.000000	0.000000
46.6300	0.000000	0.000000
46.6400	0.000000	0.000000
46.6500	0.000000	0.000000
46.6600	0.000000	0.000000
46.6700	0.000000	0.000000
46.6800	0.000000	0.000000
46.6900	0.000000	0.000000
46.7000	0.000000	0.000000
46.7100	0.000000	0.000000
46.7200	0.000000	0.000000
46.7300	0.000000	0.000000
46.7400	0.000000	0.000000
46.7500	0.000000	0.000000
46.7600	0.000000	0.000000
46.7700	0.000000	0.000000
46.7800	0.000000	0.000000
46.7900	0.000000	0.000000
46.8000	0.000000	0.000000
46.8100	0.000000	0.000000
46.8200	0.000000	0.000000
46.8300	0.000000	0.000000
46.8400	0.000000	0.000000
46.8500	0.000000	0.000000
46.8600	0.000000	0.000000
46.8700	0.000000	0.000000
46.8800	0.000000	0.000000
46.8900	0.000000	0.000000
46.9000	0.000000	0.000000
46.9100	0.000000	0.000000
46.9200	0.000000	0.000000
46.9300	0.000000	0.000000
46.9400	0.000000	0.000000
46.9500	0.000000	0.000000
46.9600	0.000000	0.000000
46.9700	0.000000	0.000000
46.9800	0.000000	0.000000
46.9900	0.000000	0.000000
47.0000	0.000000	0.000000
47.0100	0.000000	0.000000
47.0200	0.000000	0.000000
47.0300	0.000000	0.000000
47.0400	0.000000	0.000000
47.0500	0.000000	0.000000
47.0600	0.000000	0.000000
47.0700	0.000000	0.000000
47.0800	0.000000	0.000000
47.0900	0.000000	0.000000
47.1000	0.000000	0.000000
47.1100	0.000000	0.000000
47.1200	0.000000	0.000000
47.1300	0.000000	0.000000
47.1400	0.000000	0.000000
47.1500	0.000000	0.000000
47.1600	0.000000	0.000000
47.1700	0.000000	0.000000
47.1800	0.000000	0.000000
47.1900	0.000000	0.000000
47.2000	0.000000	0.000000
47.2100	0.000000	0.000000
47.2200	0.000000	0.000000
47.2300	0.000000	0.000000
47.2400	0.000000	0.000000
47.2500	0.000000	0.000000
47.2600	0.000000	0.000000
47.2700	0.000000	0.000000
47.2800	0.000000	0.000000
47.2900	0.000000	0.000000
47.3000	0.000000	0.000000
47.3100	0.000000	0.000000
47.3200	0.000000	0.000000
47.3300	0.000000	0.000000
47.3400	0.000000	0.000000
47.3500	0.000000	0.000000
47.3600	0.000000	0.000000
47.3700	0.000000	0.000000
47.3800	0.000000	0.000000
47.3900	0.000000	0.000000
47.4000	0.000000	0.000000
47.4100	0.000000	0.000000
47.4200	0.000000	0.000000
47.4300	0.000000	0.000000
47.4400	0.000000	0.000000
47.4500	0.000000	0.000000
47.4600	0.000000	0.000000
47.4700	0.000000	0.000000
47.4800	0.000000	0.000000
47.4900	0.000000	0.000000
47.5000	0.000000	0.000000
47.5100	0.000000	0.000000
47.5200	0.000000	0.000000
47.5300	0.000000	0.000000
47.5400	0.000000	0.000000
47.5500	0.000000	0.000000
47.5600	0.000000	0.000000
47.5700	0.000000	0.000000
47.5800	0.000000	0.000000
47.5900	0.000000	0.000000
47.6000	0.000000	0.000000
47.6100	0.000000	0.000000
47.6200	0.000000	0.000000
47.6300	0.000000	0.000000
47.6400	0.000000	0.000000
47.6500	0.000000	0.000000
47.6600	0.000000	0.000000
47.6700	0.000000	0.000000
47.6800	0.000000	0.000000
47.6900	0.000000	0.000000
47.7000	0.000000	0.000000
47.7100	0.000000	0.000000
47.7200	0.000000	0.000000
47.7300	0.000000	0.000000
47.7400	0.000000	0.000000
47.7500	0.000000	0.000000
47.7600	0.000000	0.000000
47.7700	0.000000	0.000000
47.7800	0.000000	0.000000
47.7900	0.000000	0.000000
47.8000	0.000000	0.000000
47.8100	0.000000	0.000000
47.8200	0.000000	0.000000
47.8300	0.000000	0.000000
47.8400	0.000000	0.000000
47.8500	0.000000	0.000000
47.8600	0.000000	0.000000
47.8700	0.000000	0.000000
47.8800	0.000000	0.000000
47.8900	0.000000	0.000000
47.9000	0.000000	0.000000
47.9100	0.000000	0.000000
47.9200	0.000000	0.000000
47.9300	0.000000	0.000000
47.9400	0.000000	0.000000
47.9500	0.000000	0.000000
47.9600	0.000000	0.000000
47.9700	0.000000	0.000000
47.9800	0.000000	0.000000
47.9900	0.000000	0.000000
48.0000	0.000000	0.000000
48.0100	0.000000	0.000235
48.0200	0.000000	0.001859
48.0300	0.000000	0.006210
48.0400	0.000000	0.014570
48.0500	0.000000	0.028168
48.0600	0.000000	0.048177
48.0700	0.000000	0.075719
48.0800	0.000000	0.111861
48.0900	0.000000	0.157621
48.1000	0.000000	0.213965
48.1100	0.000000	0.281810
48.1200	0.000000	0.362021
48.1300	0.000000	0.455417
48.1400	0.000000	0.562769
48.1500	0.000000	0.684800
48.1600	0.000000	0.822187
48.1700	0.000000	0.975562
48.1800	0.000000	1.145512
48.1900	0.000000	1.332579
48.2000	0.000000	1.537264
48.2100	0.000000	1.760024
48.2200	0.000000	2.001273
48.2300	0.000000	2.261387
48.2400	0.000000	2.540700
48.2500	0.000000	2.839506
48.2600	0.000000	3.158063
48.2700	0.000000	3.496587
48.2800	0.000000	3.855261
48.2900	0.000000	4.234229
48.3000	0.000000	4.633600
48.3100	0.000000	5.053448
48.3200	0.000000	5.493813
48.3300	0.000000	5.954702
48.3400	0.000000	6.436089
48.3500	0.000000	6.937916
48.3600	0.000000	7.460094
48.3700	0.000000	8.002504
48.3800	0.000000	8.564996
48.3900	0.000000	9.147394
48.4000	0.000000	9.749491
48.4100	0.000000	10.371055
48.4200	0.000000	11.011826
